<svg width="20" height="20" viewBox="0 0 20 20" fill="none" xmlns="http://www.w3.org/2000/svg">
<path fill-rule="evenodd" clip-rule="evenodd" d="M13.4735 17.9621L12.1232 15.9367C11.4274 16.0769 10.7164 16.1485 10.0002 16.1485C7.965 16.1485 5.9717 15.5706 4.25212 14.4821C2.53255 13.3936 1.15739 11.8393 0.286621 9.99985C1.15819 8.16102 2.53354 6.60718 4.25293 5.5188C4.47064 5.38099 4.69274 5.25136 4.91875 5.13004L3.47345 2.9621L4.8602 2.0376L6.46813 4.44948C7.59834 4.05588 8.79183 3.85175 10.0002 3.85117C12.0351 3.85216 14.0279 4.43042 15.7473 5.5188C17.4667 6.60718 18.8421 8.16102 19.7137 9.99985C18.8428 11.8393 17.4677 13.3936 15.7481 14.4821C15.1316 14.8724 14.4799 15.197 13.8037 15.4529L14.8602 17.0376L13.4735 17.9621ZM14.5047 13.273C13.9755 13.5761 13.4194 13.8242 12.8452 14.0151L11.8086 12.4602C12.0931 12.251 12.3407 11.993 12.539 11.6962C12.8745 11.1941 13.0537 10.6037 13.0537 9.99983C13.0537 9.18999 12.7319 8.41333 12.1592 7.84066C11.5867 7.26802 10.81 6.94631 10.0002 6.94631C9.44398 6.94631 8.8994 7.09816 8.42459 7.38417L7.42841 5.8899C8.25991 5.64421 9.12584 5.51791 10.0002 5.51791C11.5822 5.51791 13.1369 5.93151 14.5099 6.71769C15.8829 7.50388 17.0265 8.63535 17.8272 9.99985C17.0213 11.3598 15.8766 12.4875 14.5047 13.273ZM10.9803 10.98C10.9487 11.0116 10.9158 11.0415 10.8816 11.0697L9.35125 8.77416C9.46953 8.71155 9.5969 8.66605 9.72958 8.63966C9.99858 8.58608 10.2774 8.61358 10.5308 8.71858C10.7842 8.82349 11.0008 9.00124 11.1532 9.22933C11.3056 9.45741 11.387 9.72549 11.387 9.99983C11.3865 10.3675 11.2403 10.72 10.9803 10.98ZM11.1054 14.41L5.84775 6.52354C5.72734 6.5855 5.60817 6.65022 5.49035 6.71769C5.14548 6.91517 4.81508 7.13443 4.50095 7.3737L9.21489 14.4446C9.47539 14.4682 9.73738 14.4806 10.0002 14.4818C10.3708 14.4802 10.7398 14.4561 11.1054 14.41ZM6.85508 13.9095C6.38688 13.7356 5.93205 13.523 5.49547 13.273C4.12365 12.4875 2.9789 11.3598 2.17295 9.99985C2.48528 9.46768 2.84974 8.97096 3.25962 8.51634L6.85508 13.9095Z" fill="var(--default-black-color, #000)"/>
</svg>
