<svg width="20" height="20" viewBox="0 0 20 20" fill="none" xmlns="http://www.w3.org/2000/svg">
<path d="M9.99984 5.6595C9.50542 5.6595 9.022 5.80613 8.61092 6.08083C8.1998 6.35554 7.87936 6.74598 7.69015 7.2028C7.50092 7.65961 7.45141 8.16228 7.54788 8.64725C7.64434 9.13217 7.88245 9.57767 8.23207 9.92725C8.58167 10.2769 9.02717 10.515 9.51209 10.6115C9.99709 10.7079 10.4998 10.6584 10.9566 10.4692C11.4133 10.28 11.8038 9.95959 12.0785 9.54842C12.3533 9.13734 12.4998 8.65392 12.4998 8.1595C12.4998 7.49646 12.2364 6.86058 11.7676 6.39174C11.2988 5.9229 10.6629 5.6595 9.99984 5.6595ZM9.99984 9.24284C9.78559 9.24284 9.57609 9.17934 9.398 9.06025C9.21984 8.94125 9.081 8.772 8.999 8.57409C8.917 8.37609 8.8955 8.1583 8.93734 7.94815C8.97909 7.73801 9.08234 7.54498 9.23384 7.39347C9.38534 7.24196 9.57834 7.13879 9.7885 7.09699C9.99867 7.05519 10.2164 7.07664 10.4144 7.15864C10.6123 7.24063 10.7816 7.37949 10.9006 7.55764C11.0197 7.73579 11.0832 7.94524 11.0832 8.1595C11.0828 8.44675 10.9686 8.72209 10.7655 8.92517C10.5624 9.12825 10.2871 9.2425 9.99984 9.24284ZM9.99984 1.6665C8.35167 1.6665 6.7405 2.15525 5.37009 3.07092C3.99968 3.9866 2.93158 5.28809 2.30085 6.81081C1.67011 8.3335 1.50509 10.0091 1.82663 11.6256C2.14817 13.2421 2.94185 14.7269 4.10729 15.8924C5.27272 17.0578 6.75758 17.8515 8.37409 18.1731C9.99059 18.4946 11.6662 18.3296 13.1888 17.6988C14.7116 17.0681 16.0131 16 16.9288 14.6296C17.8444 13.2592 18.3332 11.648 18.3332 9.99984C18.3332 8.9055 18.1176 7.82185 17.6988 6.81081C17.2801 5.79976 16.6663 4.8811 15.8924 4.10728C15.1186 3.33346 14.1999 2.71963 13.1888 2.30084C12.1778 1.88205 11.0942 1.6665 9.99984 1.6665ZM12.5023 16.1748C10.8984 16.8305 9.10125 16.8305 7.49742 16.1748V14.2415C8.20541 13.6682 9.08884 13.3553 9.99984 13.3553C10.9108 13.3553 11.7943 13.6682 12.5023 14.2415V16.1748ZM14.1689 15.194V13.5318L13.9248 13.2876C13.4094 12.7721 12.7976 12.3631 12.1241 12.0841C11.4507 11.8051 10.7288 11.6615 9.99984 11.6615C9.27084 11.6615 8.549 11.8051 7.87559 12.0841C7.20212 12.3631 6.59023 12.7721 6.07484 13.2876L5.83075 13.5318V15.1939C4.75315 14.3303 3.97033 13.1534 3.59042 11.8258C3.2105 10.4981 3.25227 9.08517 3.70993 7.78229C4.16759 6.47938 5.01856 5.35075 6.1453 4.5523C7.27202 3.75387 8.61892 3.32503 9.99984 3.32503C11.3808 3.32503 12.7277 3.75387 13.8544 4.5523C14.9811 5.35075 15.8321 6.47938 16.2898 7.78229C16.7474 9.08517 16.7892 10.4981 16.4093 11.8258C16.0293 13.1534 15.2465 14.3304 14.1689 15.194Z" fill="var(--default-black-color, #000)"/>
</svg>
