<svg width="16" height="17" viewBox="0 0 16 17" fill="none" xmlns="http://www.w3.org/2000/svg">
<g clipPath="url(#clip0_970_31466)">
<path fill-rule="evenodd" clip-rule="evenodd" d="M8 1.9817C4.50494 1.9817 1.67164 4.815 1.67164 8.31006C1.67164 11.8051 4.50494 14.6384 8 14.6384C11.4951 14.6384 14.3284 11.8051 14.3284 8.31006C14.3284 4.815 11.4951 1.9817 8 1.9817ZM0 8.31006C0 3.89178 3.58172 0.310059 8 0.310059C12.4183 0.310059 16 3.89178 16 8.31006C16 12.7283 12.4183 16.3101 8 16.3101C3.58172 16.3101 0 12.7283 0 8.31006Z" fill="var(--default-black-color, #000)"/>
<path d="M7.99956 11.9095C7.48819 11.9095 7.03365 11.8219 6.63592 11.6467C6.24056 11.4715 5.92806 11.2277 5.69842 10.9152C5.46878 10.6027 5.34686 10.2416 5.33265 9.83208H6.66788C6.67972 10.0286 6.74482 10.2002 6.86319 10.347C6.98156 10.4914 7.139 10.6039 7.33549 10.6843C7.53199 10.7648 7.75216 10.8051 7.996 10.8051C8.25642 10.8051 8.48725 10.7601 8.68848 10.6701C8.88971 10.5778 9.04714 10.45 9.16078 10.2866C9.27441 10.1233 9.33005 9.93506 9.32768 9.72199C9.33005 9.50182 9.27323 9.30769 9.15723 9.1396C9.04122 8.97152 8.87314 8.84012 8.65297 8.74543C8.43516 8.65073 8.17238 8.60338 7.86461 8.60338H7.22186V7.58776H7.86461C8.11793 7.58776 8.33928 7.54396 8.52868 7.45637C8.72044 7.36877 8.87077 7.24566 8.97967 7.08705C9.08857 6.92606 9.14184 6.74022 9.13947 6.52952C9.14184 6.32355 9.09567 6.14481 9.00098 5.9933C8.90865 5.83941 8.77726 5.71986 8.6068 5.63463C8.43871 5.5494 8.24103 5.50679 8.01376 5.50679C7.79122 5.50679 7.58526 5.54704 7.39586 5.62753C7.20647 5.70802 7.05377 5.82284 6.93777 5.97199C6.82176 6.11877 6.76021 6.29396 6.75311 6.49756H5.48535C5.49482 6.09036 5.61201 5.73288 5.83691 5.42512C6.06419 5.11498 6.36722 4.87351 6.746 4.70068C7.12479 4.52549 7.54975 4.4379 8.02086 4.4379C8.50618 4.4379 8.92759 4.52905 9.28507 4.71134C9.64492 4.89126 9.92309 5.13392 10.1196 5.43932C10.3161 5.74472 10.4143 6.08208 10.4143 6.45139C10.4167 6.86096 10.296 7.20423 10.0521 7.48122C9.81064 7.75821 9.4934 7.93932 9.10041 8.02455V8.08137C9.61177 8.15239 10.0036 8.34178 10.2758 8.64955C10.5505 8.95494 10.6866 9.33492 10.6842 9.78946C10.6842 10.1967 10.5682 10.5612 10.3362 10.8832C10.1066 11.2028 9.78933 11.4538 9.3845 11.6361C8.98204 11.8183 8.52039 11.9095 7.99956 11.9095Z" fill="var(--default-black-color, #000)"/>
</g>
<defs>
<clipPath id="clip0_970_31466">
<rect width="16" height="16" fill="white" transform="translate(0 0.310059)"/>
</clipPath>
</defs>
</svg>
