<svg width="16" height="17" viewBox="0 0 16 17" fill="none" xmlns="http://www.w3.org/2000/svg">
<g clipPath="url(#clip0_970_17764)">
<path fill-rule="evenodd" clip-rule="evenodd" d="M8 1.9817C4.50494 1.9817 1.67164 4.815 1.67164 8.31006C1.67164 11.8051 4.50494 14.6384 8 14.6384C11.4951 14.6384 14.3284 11.8051 14.3284 8.31006C14.3284 4.815 11.4951 1.9817 8 1.9817ZM0 8.31006C0 3.89178 3.58172 0.310059 8 0.310059C12.4183 0.310059 16 3.89178 16 8.31006C16 12.7283 12.4183 16.3101 8 16.3101C3.58172 16.3101 0 12.7283 0 8.31006Z" fill="var(--default-black-color, #000)"/>
<path d="M5.54084 11.8101V10.8584L8.0657 8.38321C8.30717 8.13937 8.5084 7.92275 8.66939 7.73335C8.83037 7.54396 8.95111 7.36048 9.03161 7.18293C9.1121 7.00537 9.15234 6.81598 9.15234 6.61475C9.15234 6.38511 9.10026 6.18861 8.99609 6.02526C8.89193 5.85954 8.7487 5.7317 8.56641 5.64173C8.38411 5.55177 8.17696 5.50679 7.94496 5.50679C7.70585 5.50679 7.49633 5.55651 7.31641 5.65594C7.13648 5.753 6.9968 5.8915 6.89737 6.07142C6.80031 6.25135 6.75178 6.4656 6.75178 6.71418H5.49822C5.49822 6.25253 5.60357 5.85125 5.81428 5.51034C6.02498 5.16943 6.31499 4.90547 6.6843 4.71844C7.05599 4.53141 7.48213 4.4379 7.96271 4.4379C8.4504 4.4379 8.87891 4.52905 9.24822 4.71134C9.61754 4.89363 9.904 5.14339 10.1076 5.46063C10.3136 5.77786 10.4165 6.14008 10.4165 6.54727C10.4165 6.81953 10.3645 7.08705 10.2603 7.34983C10.1561 7.61262 9.97266 7.90381 9.70987 8.22341C9.44946 8.54301 9.08369 8.93009 8.61257 9.38463L7.35902 10.6595V10.7092H10.5266V11.8101H5.54084Z" fill="var(--default-black-color, #000)"/>
</g>
<defs>
<clipPath id="clip0_970_17764">
<rect width="16" height="16" fill="white" transform="translate(0 0.310059)"/>
</clipPath>
</defs>
</svg>
