<svg width="16" height="17" viewBox="0 0 16 17" fill="none" xmlns="http://www.w3.org/2000/svg">
<g clipPath="url(#clip0_970_19856)">
<path fill-rule="evenodd" clip-rule="evenodd" d="M8 1.9817C4.50494 1.9817 1.67164 4.815 1.67164 8.31006C1.67164 11.8051 4.50494 14.6384 8 14.6384C11.4951 14.6384 14.3284 11.8051 14.3284 8.31006C14.3284 4.815 11.4951 1.9817 8 1.9817ZM0 8.31006C0 3.89178 3.58172 0.310059 8 0.310059C12.4183 0.310059 16 3.89178 16 8.31006C16 12.7283 12.4183 16.3101 8 16.3101C3.58172 16.3101 0 12.7283 0 8.31006Z" fill="var(--default-black-color, #000)"/>
<path d="M9.20206 4.53733V11.8101H7.88459V5.81929H7.84197L6.14098 6.90594V5.69855L7.94851 4.53733H9.20206Z" fill="var(--default-black-color, #000)"/>
</g>
<defs>
<clipPath id="clip0_970_19856">
<rect width="16" height="16" fill="white" transform="translate(0 0.310059)"/>
</clipPath>
</defs>
</svg>
