<svg width="20" height="20" viewBox="0 0 20 20" fill="none" xmlns="http://www.w3.org/2000/svg">
<path fill-rule="evenodd" clip-rule="evenodd" d="M3.72616 12.4244H1.6665L4.80482 3.3335H7.28174L10.4156 12.4244H8.35596L7.6829 10.3514H4.40054L3.72616 12.4244ZM6.07879 5.41091L7.19576 8.85107H4.88863L6.00777 5.41091H6.07879Z" fill="var(--default-black-color, #000)"/>
<path fill-rule="evenodd" clip-rule="evenodd" d="M13.3867 9.16683C14.3455 9.16683 15.1608 9.34883 15.8326 9.71282C16.5043 10.0768 17.0148 10.5814 17.364 11.2265C17.7162 11.8716 17.8922 12.6203 17.8922 13.4726V14.4314C17.8922 15.2245 17.7221 15.9273 17.3818 16.5399C17.0444 17.1524 16.5739 17.6333 15.9702 17.9825C15.3695 18.3317 14.6785 18.5063 13.8972 18.5063C13.0864 18.5063 12.3895 18.3391 11.8065 18.0047C11.2265 17.6674 10.7811 17.1865 10.4704 16.5621C10.1596 15.9377 10.0028 15.189 9.99984 14.316V13.2861H15.9482C15.9341 12.982 15.8853 12.6994 15.8015 12.4383C15.7009 12.1217 15.5426 11.8465 15.3265 11.6127C15.1105 11.3789 14.8323 11.1984 14.492 11.0711C14.1517 10.9409 13.7418 10.8758 13.2624 10.8758C13.0168 10.8758 12.7579 10.8921 12.4856 10.9246C12.2163 10.9572 11.9515 11.0016 11.6911 11.0578C11.4306 11.1111 11.1954 11.1688 10.9853 11.2309L10.6701 9.63736C10.8181 9.56929 11.0341 9.49975 11.3182 9.42873C11.6023 9.3577 11.9248 9.29704 12.2859 9.24673C12.6469 9.19346 13.0139 9.16683 13.3867 9.16683ZM11.9308 14.8531H15.9286C15.8941 15.1474 15.8221 15.4182 15.7127 15.6654C15.5559 16.0235 15.3206 16.3046 15.0069 16.5088C14.6933 16.713 14.3026 16.8151 13.8351 16.8151C13.4178 16.8151 13.0686 16.7411 12.7875 16.5931C12.5063 16.4422 12.2933 16.2336 12.1483 15.9673C12.0062 15.698 11.9337 15.3872 11.9308 15.0351V14.8531Z" fill="var(--default-black-color, #000)"/>
<path d="M8.33317 14.1668H1.6665V15.8335H8.33317V14.1668Z" fill="var(--default-black-color, #000)"/>
</svg>
