<svg width="61" height="24" viewBox="0 0 61 24" fill="none" xmlns="http://www.w3.org/2000/svg">
<path fill-rule="evenodd" clip-rule="evenodd" d="M39.463 15.9813C43.7932 15.9813 47.3036 12.4038 47.3036 7.99065C47.3036 3.57754 43.7932 0 39.463 0C35.1327 0 31.6223 3.57754 31.6223 7.99065C31.6223 12.4038 35.1327 15.9813 39.463 15.9813ZM39.4909 12.4486C41.8916 12.4486 43.8377 10.4653 43.8377 8.01869C43.8377 5.57212 41.8916 3.58878 39.4909 3.58878C37.0903 3.58878 35.1442 5.57212 35.1442 8.01869C35.1442 10.4653 37.0903 12.4486 39.4909 12.4486Z" fill="var(--default-black-color, #000)"/>
<path fill-rule="evenodd" clip-rule="evenodd" d="M31.244 1.86245e-06H23.433L23.4351 0.00626131C23.3312 0.00210278 23.2268 4.0315e-06 23.122 4.0315e-06C18.7917 4.0315e-06 15.2813 3.57754 15.2813 7.99066C15.2813 12.4038 18.7917 15.9813 23.122 15.9813C27.4522 15.9813 30.9626 12.4038 30.9626 7.99066C30.9626 6.11754 30.3302 4.39495 29.2711 3.03255H31.244V1.86245e-06ZM23.1487 12.4486C25.5493 12.4486 27.4954 10.4653 27.4954 8.0187C27.4954 5.57213 25.5493 3.58879 23.1487 3.58879C20.748 3.58879 18.8019 5.57213 18.8019 8.0187C18.8019 10.4653 20.748 12.4486 23.1487 12.4486Z" fill="var(--default-black-color, #000)"/>
<path d="M23.1222 24C27.4524 24 30.9628 20.4225 30.9628 16.0093L27.4956 16.0093L27.4956 16.0374C27.4956 18.484 25.5495 20.4673 23.1489 20.4673C20.7483 20.4673 18.8022 18.484 18.8022 16.0374L18.8022 16.0093L15.2815 16.0093C15.2815 20.4225 18.7919 24 23.1222 24Z" fill="var(--default-black-color, #000)"/>
<path d="M57.0732 0H61L55.4209 15.9813H51.3411L45.762 0H49.699L53.2994 11.8715H53.4626L57.0732 0Z" fill="var(--default-black-color, #000)"/>
<path d="M10.5485 6.25419C10.36 5.21663 10.0206 4.42885 9.5304 3.89086C9.05907 3.35286 8.33321 3.08386 7.35283 3.08386C6.71182 3.08386 6.17449 3.19915 5.74086 3.42972C5.32609 3.64107 4.98673 3.91007 4.72278 4.23671C4.47769 4.56335 4.29858 4.9092 4.18546 5.27427C4.09119 5.63934 4.03463 5.96598 4.01578 6.25419H10.5485ZM4.01578 8.84809C4.07234 10.1739 4.40227 11.1346 5.00558 11.7302C5.60889 12.3258 6.47615 12.6237 7.60735 12.6237C8.41805 12.6237 9.11563 12.4219 9.70008 12.0184C10.2845 11.5957 10.6428 11.1538 10.7747 10.6926H14.3097C13.7441 12.4796 12.8769 13.7573 11.708 14.5259C10.5391 15.2944 9.12505 15.6787 7.46595 15.6787C6.31589 15.6787 5.27896 15.4962 4.35514 15.1311C3.43132 14.7468 2.6489 14.2088 2.00789 13.5171C1.36687 12.8254 0.867257 11.9992 0.509042 11.0385C0.169681 10.0778 0 9.02102 0 7.86818C0 6.75376 0.179107 5.7162 0.537322 4.75549C0.895537 3.79479 1.40458 2.96858 2.06445 2.27687C2.72432 1.56595 3.50673 1.00874 4.4117 0.605243C5.33552 0.201748 6.3536 0 7.46595 0C8.71028 0 9.79435 0.249784 10.7182 0.749351C11.642 1.2297 12.3961 1.88298 12.9806 2.70919C13.5839 3.5354 14.0175 4.47689 14.2815 5.53366C14.5454 6.59044 14.6397 7.69525 14.5643 8.84809H4.01578Z" fill="var(--default-black-color, #000)"/>
</svg>
