<svg xmlns="http://www.w3.org/2000/svg" width="24" height="25" viewBox="0 0 24 25" fill="none">
<g clipPath="url(#clip0_874_95062)">
<path d="M11 3.31006H21V11.3101H18L14 13.3101V11.3101H11V3.31006Z" stroke="var(--default-black-color, #000)" strokeWidth="2" stroke-linecap="round" stroke-linejoin="round"/>
<path d="M15 16.3101V20.3101C15 20.5753 14.8946 20.8296 14.7071 21.0172C14.5196 21.2047 14.2652 21.3101 14 21.3101H6C5.73478 21.3101 5.48043 21.2047 5.29289 21.0172C5.10536 20.8296 5 20.5753 5 20.3101V6.31006C5 6.04484 5.10536 5.79049 5.29289 5.60295C5.48043 5.41542 5.73478 5.31006 6 5.31006H8" stroke="var(--default-black-color, #000)" strokeWidth="2" stroke-linecap="round" stroke-linejoin="round"/>
<path d="M10 18.3101V18.3201" stroke="var(--default-black-color, #000)" strokeWidth="2" stroke-linecap="round" stroke-linejoin="round"/>
</g>
<defs>
<clipPath id="clip0_874_95062">
<rect width="24" height="24" fill="white" transform="translate(0 0.310059)"/>
</clipPath>
</defs>
</svg>